solid 9D33
facet normal 0 0 -1
  outer loop
    vertex 2323.321533203125 1.5 -1093.81884765625
    vertex 2363.321533203125 -1.1279865760785e-14 -1093.81884765625
    vertex 2323.321533203125 -1.1279865760785e-14 -1093.81884765625
  endloop
endfacet
facet normal 0 0 -1
  outer loop
    vertex 2363.321533203125 -1.1279865760785e-14 -1093.81884765625
    vertex 2323.321533203125 1.5 -1093.81884765625
    vertex 2363.321533203125 1.5 -1093.81884765625
  endloop
endfacet
facet normal 1 0 0
  outer loop
    vertex 2301.321533203125 1.5 -1180.845458984375
    vertex 2301.321533203125 27.5 -1083.845458984375
    vertex 2301.321533203125 1.5 -1083.845458984375
  endloop
endfacet
facet normal 1 0 0
  outer loop
    vertex 2301.321533203125 27.5 -1083.845458984375
    vertex 2301.321533203125 1.5 -1180.845458984375
    vertex 2301.321533203125 27.5 -1180.845458984375
  endloop
endfacet
facet normal 1 0 0
  outer loop
    vertex 2307.717041015625 -1.409983220098125e-15 -1169.496948242188
    vertex 2307.717041015625 1.5 -1145.296875
    vertex 2307.717041015625 -1.409983220098125e-15 -1145.296875
  endloop
endfacet
facet normal 1 0 0
  outer loop
    vertex 2307.717041015625 1.5 -1145.296875
    vertex 2307.717041015625 -1.409983220098125e-15 -1169.496948242188
    vertex 2307.717041015625 1.5 -1169.496948242188
  endloop
endfacet
facet normal 0 0 -1
  outer loop
    vertex 2299.821533203125 27.5 -1182.345458984375
    vertex 2386.821533203125 0 -1182.345458984375
    vertex 2299.821533203125 0 -1182.345458984375
  endloop
endfacet
facet normal 0 0 -1
  outer loop
    vertex 2386.821533203125 0 -1182.345458984375
    vertex 2299.821533203125 27.5 -1182.345458984375
    vertex 2386.821533203125 27.5 -1182.345458984375
  endloop
endfacet
facet normal 0 0 1
  outer loop
    vertex 2386.821533203125 27.5 -1082.345458984375
    vertex 2299.821533203125 0 -1082.345458984375
    vertex 2386.821533203125 0 -1082.345458984375
  endloop
endfacet
facet normal 0 0 1
  outer loop
    vertex 2299.821533203125 0 -1082.345458984375
    vertex 2386.821533203125 27.5 -1082.345458984375
    vertex 2299.821533203125 27.5 -1082.345458984375
  endloop
endfacet
facet normal 0 1 0
  outer loop
    vertex 2301.321533203125 1.5 -1083.845458984375
    vertex 2307.717041015625 1.5 -1145.296875
    vertex 2301.321533203125 1.5 -1180.845458984375
  endloop
endfacet
facet normal 0 1 0
  outer loop
    vertex 2307.717041015625 1.5 -1145.296875
    vertex 2301.321533203125 1.5 -1083.845458984375
    vertex 2323.321533203125 1.5 -1093.81884765625
  endloop
endfacet
facet normal 0 1 0
  outer loop
    vertex 2323.321533203125 1.5 -1093.81884765625
    vertex 2301.321533203125 1.5 -1083.845458984375
    vertex 2385.321533203125 1.5 -1083.845458984375
  endloop
endfacet
facet normal 0 1 0
  outer loop
    vertex 2323.321533203125 1.5 -1093.81884765625
    vertex 2385.321533203125 1.5 -1083.845458984375
    vertex 2363.321533203125 1.5 -1093.81884765625
  endloop
endfacet
facet normal 0 1 0
  outer loop
    vertex 2363.321533203125 1.5 -1093.81884765625
    vertex 2385.321533203125 1.5 -1083.845458984375
    vertex 2363.321533203125 1.5 -1131.018798828125
  endloop
endfacet
facet normal 0 1 0
  outer loop
    vertex 2363.321533203125 1.5 -1131.018798828125
    vertex 2385.321533203125 1.5 -1083.845458984375
    vertex 2378.9169921875 1.5 -1145.296875
  endloop
endfacet
facet normal 0 1 0
  outer loop
    vertex 2378.9169921875 1.5 -1145.296875
    vertex 2385.321533203125 1.5 -1083.845458984375
    vertex 2378.9169921875 1.5 -1169.496948242188
  endloop
endfacet
facet normal 0 1 0
  outer loop
    vertex 2301.321533203125 1.5 -1180.845458984375
    vertex 2307.717041015625 1.5 -1169.496948242188
    vertex 2385.321533203125 1.5 -1180.845458984375
  endloop
endfacet
facet normal 0 1 0
  outer loop
    vertex 2307.717041015625 1.5 -1169.496948242188
    vertex 2301.321533203125 1.5 -1180.845458984375
    vertex 2307.717041015625 1.5 -1145.296875
  endloop
endfacet
facet normal 0 1 0
  outer loop
    vertex 2385.321533203125 1.5 -1180.845458984375
    vertex 2307.717041015625 1.5 -1169.496948242188
    vertex 2378.9169921875 1.5 -1169.496948242188
  endloop
endfacet
facet normal 0 1 0
  outer loop
    vertex 2385.321533203125 1.5 -1180.845458984375
    vertex 2378.9169921875 1.5 -1169.496948242188
    vertex 2385.321533203125 1.5 -1083.845458984375
  endloop
endfacet
facet normal 0 1 0
  outer loop
    vertex 2307.717041015625 1.5 -1145.296875
    vertex 2323.321533203125 1.5 -1131.018798828125
    vertex 2378.9169921875 1.5 -1145.296875
  endloop
endfacet
facet normal 0 1 0
  outer loop
    vertex 2323.321533203125 1.5 -1131.018798828125
    vertex 2307.717041015625 1.5 -1145.296875
    vertex 2323.321533203125 1.5 -1093.81884765625
  endloop
endfacet
facet normal 0 1 0
  outer loop
    vertex 2378.9169921875 1.5 -1145.296875
    vertex 2323.321533203125 1.5 -1131.018798828125
    vertex 2363.321533203125 1.5 -1131.018798828125
  endloop
endfacet
facet normal 0 -1 0
  outer loop
    vertex 2378.9169921875 -1.409983220098125e-15 -1145.296875
    vertex 2323.321533203125 -1.1279865760785e-14 -1131.018798828125
    vertex 2307.717041015625 -1.409983220098125e-15 -1145.296875
  endloop
endfacet
facet normal 0 -1 0
  outer loop
    vertex 2323.321533203125 -1.1279865760785e-14 -1131.018798828125
    vertex 2378.9169921875 -1.409983220098125e-15 -1145.296875
    vertex 2363.321533203125 -1.1279865760785e-14 -1131.018798828125
  endloop
endfacet
facet normal 0 -1 0
  outer loop
    vertex 2363.321533203125 -1.1279865760785e-14 -1131.018798828125
    vertex 2378.9169921875 -1.409983220098125e-15 -1145.296875
    vertex 2363.321533203125 -1.1279865760785e-14 -1093.81884765625
  endloop
endfacet
facet normal 0 -1 0
  outer loop
    vertex 2299.821533203125 0 -1182.345458984375
    vertex 2307.717041015625 -1.409983220098125e-15 -1169.496948242188
    vertex 2299.821533203125 0 -1082.345458984375
  endloop
endfacet
facet normal 0 -1 0
  outer loop
    vertex 2307.717041015625 -1.409983220098125e-15 -1169.496948242188
    vertex 2299.821533203125 0 -1182.345458984375
    vertex 2386.821533203125 0 -1182.345458984375
  endloop
endfacet
facet normal 0 -1 0
  outer loop
    vertex 2307.717041015625 -1.409983220098125e-15 -1169.496948242188
    vertex 2386.821533203125 0 -1182.345458984375
    vertex 2378.9169921875 -1.409983220098125e-15 -1169.496948242188
  endloop
endfacet
facet normal 0 -1 0
  outer loop
    vertex 2378.9169921875 -1.409983220098125e-15 -1169.496948242188
    vertex 2386.821533203125 0 -1182.345458984375
    vertex 2378.9169921875 -1.409983220098125e-15 -1145.296875
  endloop
endfacet
facet normal 0 -1 0
  outer loop
    vertex 2299.821533203125 0 -1082.345458984375
    vertex 2323.321533203125 -1.1279865760785e-14 -1093.81884765625
    vertex 2386.821533203125 0 -1082.345458984375
  endloop
endfacet
facet normal 0 -1 0
  outer loop
    vertex 2323.321533203125 -1.1279865760785e-14 -1093.81884765625
    vertex 2299.821533203125 0 -1082.345458984375
    vertex 2307.717041015625 -1.409983220098125e-15 -1145.296875
  endloop
endfacet
facet normal 0 -1 0
  outer loop
    vertex 2307.717041015625 -1.409983220098125e-15 -1145.296875
    vertex 2299.821533203125 0 -1082.345458984375
    vertex 2307.717041015625 -1.409983220098125e-15 -1169.496948242188
  endloop
endfacet
facet normal 0 -1 0
  outer loop
    vertex 2323.321533203125 -1.1279865760785e-14 -1093.81884765625
    vertex 2307.717041015625 -1.409983220098125e-15 -1145.296875
    vertex 2323.321533203125 -1.1279865760785e-14 -1131.018798828125
  endloop
endfacet
facet normal 0 -1 0
  outer loop
    vertex 2386.821533203125 0 -1082.345458984375
    vertex 2323.321533203125 -1.1279865760785e-14 -1093.81884765625
    vertex 2363.321533203125 -1.1279865760785e-14 -1093.81884765625
  endloop
endfacet
facet normal 0 -1 0
  outer loop
    vertex 2386.821533203125 0 -1082.345458984375
    vertex 2363.321533203125 -1.1279865760785e-14 -1093.81884765625
    vertex 2378.9169921875 -1.409983220098125e-15 -1145.296875
  endloop
endfacet
facet normal 0 -1 0
  outer loop
    vertex 2386.821533203125 0 -1082.345458984375
    vertex 2378.9169921875 -1.409983220098125e-15 -1145.296875
    vertex 2386.821533203125 0 -1182.345458984375
  endloop
endfacet
facet normal 0 1 0
  outer loop
    vertex 2299.821533203125 27.5 -1082.345458984375
    vertex 2301.321533203125 27.5 -1083.845458984375
    vertex 2299.821533203125 27.5 -1182.345458984375
  endloop
endfacet
facet normal 0 1 0
  outer loop
    vertex 2301.321533203125 27.5 -1083.845458984375
    vertex 2299.821533203125 27.5 -1082.345458984375
    vertex 2386.821533203125 27.5 -1082.345458984375
  endloop
endfacet
facet normal 0 1 0
  outer loop
    vertex 2301.321533203125 27.5 -1083.845458984375
    vertex 2386.821533203125 27.5 -1082.345458984375
    vertex 2385.321533203125 27.5 -1083.845458984375
  endloop
endfacet
facet normal 0 1 0
  outer loop
    vertex 2385.321533203125 27.5 -1083.845458984375
    vertex 2386.821533203125 27.5 -1082.345458984375
    vertex 2385.321533203125 27.5 -1180.845458984375
  endloop
endfacet
facet normal 0 1 0
  outer loop
    vertex 2299.821533203125 27.5 -1182.345458984375
    vertex 2301.321533203125 27.5 -1180.845458984375
    vertex 2386.821533203125 27.5 -1182.345458984375
  endloop
endfacet
facet normal 0 1 0
  outer loop
    vertex 2301.321533203125 27.5 -1180.845458984375
    vertex 2299.821533203125 27.5 -1182.345458984375
    vertex 2301.321533203125 27.5 -1083.845458984375
  endloop
endfacet
facet normal 0 1 0
  outer loop
    vertex 2386.821533203125 27.5 -1182.345458984375
    vertex 2301.321533203125 27.5 -1180.845458984375
    vertex 2385.321533203125 27.5 -1180.845458984375
  endloop
endfacet
facet normal 0 1 0
  outer loop
    vertex 2386.821533203125 27.5 -1182.345458984375
    vertex 2385.321533203125 27.5 -1180.845458984375
    vertex 2386.821533203125 27.5 -1082.345458984375
  endloop
endfacet
facet normal 1 0 0
  outer loop
    vertex 2386.821533203125 0 -1082.345458984375
    vertex 2386.821533203125 12.52184200286865 -1088.416870117188
    vertex 2386.821533203125 27.5 -1082.345458984375
  endloop
endfacet
facet normal 1 0 0
  outer loop
    vertex 2386.821533203125 12.52184200286865 -1088.416870117188
    vertex 2386.821533203125 0 -1082.345458984375
    vertex 2386.821533203125 11.19534683227539 -1088.96630859375
  endloop
endfacet
facet normal 1 0 0
  outer loop
    vertex 2386.821533203125 11.19534683227539 -1088.96630859375
    vertex 2386.821533203125 0 -1082.345458984375
    vertex 2386.821533203125 10.05625915527344 -1089.84033203125
  endloop
endfacet
facet normal 1 0 0
  outer loop
    vertex 2386.821533203125 10.05625915527344 -1089.84033203125
    vertex 2386.821533203125 0 -1082.345458984375
    vertex 2386.821533203125 9.182207107543945 -1090.9794921875
  endloop
endfacet
facet normal 1 0 0
  outer loop
    vertex 2386.821533203125 9.182207107543945 -1090.9794921875
    vertex 2386.821533203125 0 -1082.345458984375
    vertex 2386.821533203125 8.632754325866699 -1092.305908203125
  endloop
endfacet
facet normal 1 0 0
  outer loop
    vertex 2386.821533203125 8.632754325866699 -1092.305908203125
    vertex 2386.821533203125 0 -1082.345458984375
    vertex 2386.821533203125 8.445346832275391 -1093.7294921875
  endloop
endfacet
facet normal 1 0 0
  outer loop
    vertex 2386.821533203125 8.445346832275391 -1093.7294921875
    vertex 2386.821533203125 0 -1082.345458984375
    vertex 2386.821533203125 0 -1182.345458984375
  endloop
endfacet
facet normal 1 0 0
  outer loop
    vertex 2386.821533203125 27.5 -1082.345458984375
    vertex 2386.821533203125 12.52184200286865 -1088.416870117188
    vertex 2386.821533203125 13.94534683227539 -1088.2294921875
  endloop
endfacet
facet normal 1 0 0
  outer loop
    vertex 2386.821533203125 8.445346832275391 -1093.7294921875
    vertex 2386.821533203125 0 -1182.345458984375
    vertex 2386.821533203125 8.632754325866699 -1095.152954101563
  endloop
endfacet
facet normal 1 0 0
  outer loop
    vertex 2386.821533203125 8.632754325866699 -1095.152954101563
    vertex 2386.821533203125 0 -1182.345458984375
    vertex 2386.821533203125 9.182207107543945 -1096.4794921875
  endloop
endfacet
facet normal 1 0 0
  outer loop
    vertex 2386.821533203125 9.182207107543945 -1096.4794921875
    vertex 2386.821533203125 0 -1182.345458984375
    vertex 2386.821533203125 10.05625915527344 -1097.618530273438
  endloop
endfacet
facet normal 1 0 0
  outer loop
    vertex 2386.821533203125 10.05625915527344 -1097.618530273438
    vertex 2386.821533203125 0 -1182.345458984375
    vertex 2386.821533203125 11.19534683227539 -1098.492553710938
  endloop
endfacet
facet normal 1 0 0
  outer loop
    vertex 2386.821533203125 11.19534683227539 -1098.492553710938
    vertex 2386.821533203125 0 -1182.345458984375
    vertex 2386.821533203125 12.52184200286865 -1099.042114257813
  endloop
endfacet
facet normal 1 0 0
  outer loop
    vertex 2386.821533203125 12.52184200286865 -1099.042114257813
    vertex 2386.821533203125 0 -1182.345458984375
    vertex 2386.821533203125 13.94534683227539 -1099.2294921875
  endloop
endfacet
facet normal 1 0 0
  outer loop
    vertex 2386.821533203125 27.5 -1082.345458984375
    vertex 2386.821533203125 19.44534683227539 -1093.7294921875
    vertex 2386.821533203125 27.5 -1182.345458984375
  endloop
endfacet
facet normal 1 0 0
  outer loop
    vertex 2386.821533203125 19.44534683227539 -1093.7294921875
    vertex 2386.821533203125 27.5 -1082.345458984375
    vertex 2386.821533203125 19.25793838500977 -1092.305908203125
  endloop
endfacet
facet normal 1 0 0
  outer loop
    vertex 2386.821533203125 19.25793838500977 -1092.305908203125
    vertex 2386.821533203125 27.5 -1082.345458984375
    vertex 2386.821533203125 18.70848655700684 -1090.9794921875
  endloop
endfacet
facet normal 1 0 0
  outer loop
    vertex 2386.821533203125 18.70848655700684 -1090.9794921875
    vertex 2386.821533203125 27.5 -1082.345458984375
    vertex 2386.821533203125 17.83443450927734 -1089.84033203125
  endloop
endfacet
facet normal 1 0 0
  outer loop
    vertex 2386.821533203125 17.83443450927734 -1089.84033203125
    vertex 2386.821533203125 27.5 -1082.345458984375
    vertex 2386.821533203125 16.69534683227539 -1088.96630859375
  endloop
endfacet
facet normal 1 0 0
  outer loop
    vertex 2386.821533203125 16.69534683227539 -1088.96630859375
    vertex 2386.821533203125 27.5 -1082.345458984375
    vertex 2386.821533203125 15.36885166168213 -1088.416870117188
  endloop
endfacet
facet normal 1 0 0
  outer loop
    vertex 2386.821533203125 15.36885166168213 -1088.416870117188
    vertex 2386.821533203125 27.5 -1082.345458984375
    vertex 2386.821533203125 13.94534683227539 -1088.2294921875
  endloop
endfacet
facet normal 1 0 0
  outer loop
    vertex 2386.821533203125 27.5 -1182.345458984375
    vertex 2386.821533203125 19.44534683227539 -1093.7294921875
    vertex 2386.821533203125 19.25793838500977 -1095.152954101563
  endloop
endfacet
facet normal 1 0 0
  outer loop
    vertex 2386.821533203125 27.5 -1182.345458984375
    vertex 2386.821533203125 19.25793838500977 -1095.152954101563
    vertex 2386.821533203125 18.70848655700684 -1096.4794921875
  endloop
endfacet
facet normal 1 0 0
  outer loop
    vertex 2386.821533203125 27.5 -1182.345458984375
    vertex 2386.821533203125 18.70848655700684 -1096.4794921875
    vertex 2386.821533203125 17.83443450927734 -1097.618530273438
  endloop
endfacet
facet normal 1 0 0
  outer loop
    vertex 2386.821533203125 27.5 -1182.345458984375
    vertex 2386.821533203125 17.83443450927734 -1097.618530273438
    vertex 2386.821533203125 16.69534683227539 -1098.492553710938
  endloop
endfacet
facet normal 1 0 0
  outer loop
    vertex 2386.821533203125 27.5 -1182.345458984375
    vertex 2386.821533203125 16.69534683227539 -1098.492553710938
    vertex 2386.821533203125 15.36885166168213 -1099.042114257813
  endloop
endfacet
facet normal 1 0 0
  outer loop
    vertex 2386.821533203125 27.5 -1182.345458984375
    vertex 2386.821533203125 15.36885166168213 -1099.042114257813
    vertex 2386.821533203125 13.94534683227539 -1099.2294921875
  endloop
endfacet
facet normal 1 0 0
  outer loop
    vertex 2386.821533203125 27.5 -1182.345458984375
    vertex 2386.821533203125 13.94534683227539 -1099.2294921875
    vertex 2386.821533203125 0 -1182.345458984375
  endloop
endfacet
facet normal -1 -0 0
  outer loop
    vertex 2299.821533203125 27.5 -1182.345458984375
    vertex 2299.821533203125 0 -1082.345458984375
    vertex 2299.821533203125 27.5 -1082.345458984375
  endloop
endfacet
facet normal -1 -0 0
  outer loop
    vertex 2299.821533203125 0 -1082.345458984375
    vertex 2299.821533203125 27.5 -1182.345458984375
    vertex 2299.821533203125 0 -1182.345458984375
  endloop
endfacet
facet normal 1 0 0
  outer loop
    vertex 2385.321533203125 1.5 -1083.845458984375
    vertex 2385.321533203125 12.52184200286865 -1088.416870117188
    vertex 2385.321533203125 27.5 -1083.845458984375
  endloop
endfacet
facet normal 1 0 0
  outer loop
    vertex 2385.321533203125 12.52184200286865 -1088.416870117188
    vertex 2385.321533203125 1.5 -1083.845458984375
    vertex 2385.321533203125 11.19534683227539 -1088.96630859375
  endloop
endfacet
facet normal 1 0 0
  outer loop
    vertex 2385.321533203125 11.19534683227539 -1088.96630859375
    vertex 2385.321533203125 1.5 -1083.845458984375
    vertex 2385.321533203125 10.05625915527344 -1089.84033203125
  endloop
endfacet
facet normal 1 0 0
  outer loop
    vertex 2385.321533203125 10.05625915527344 -1089.84033203125
    vertex 2385.321533203125 1.5 -1083.845458984375
    vertex 2385.321533203125 9.182207107543945 -1090.9794921875
  endloop
endfacet
facet normal 1 0 0
  outer loop
    vertex 2385.321533203125 9.182207107543945 -1090.9794921875
    vertex 2385.321533203125 1.5 -1083.845458984375
    vertex 2385.321533203125 8.632754325866699 -1092.305908203125
  endloop
endfacet
facet normal 1 0 0
  outer loop
    vertex 2385.321533203125 8.632754325866699 -1092.305908203125
    vertex 2385.321533203125 1.5 -1083.845458984375
    vertex 2385.321533203125 8.445346832275391 -1093.7294921875
  endloop
endfacet
facet normal 1 0 0
  outer loop
    vertex 2385.321533203125 8.445346832275391 -1093.7294921875
    vertex 2385.321533203125 1.5 -1083.845458984375
    vertex 2385.321533203125 1.5 -1180.845458984375
  endloop
endfacet
facet normal 1 0 0
  outer loop
    vertex 2385.321533203125 27.5 -1083.845458984375
    vertex 2385.321533203125 12.52184200286865 -1088.416870117188
    vertex 2385.321533203125 13.94534683227539 -1088.2294921875
  endloop
endfacet
facet normal 1 0 0
  outer loop
    vertex 2385.321533203125 8.445346832275391 -1093.7294921875
    vertex 2385.321533203125 1.5 -1180.845458984375
    vertex 2385.321533203125 8.632754325866699 -1095.152954101563
  endloop
endfacet
facet normal 1 0 0
  outer loop
    vertex 2385.321533203125 8.632754325866699 -1095.152954101563
    vertex 2385.321533203125 1.5 -1180.845458984375
    vertex 2385.321533203125 9.182207107543945 -1096.4794921875
  endloop
endfacet
facet normal 1 0 0
  outer loop
    vertex 2385.321533203125 9.182207107543945 -1096.4794921875
    vertex 2385.321533203125 1.5 -1180.845458984375
    vertex 2385.321533203125 10.05625915527344 -1097.618530273438
  endloop
endfacet
facet normal 1 0 0
  outer loop
    vertex 2385.321533203125 10.05625915527344 -1097.618530273438
    vertex 2385.321533203125 1.5 -1180.845458984375
    vertex 2385.321533203125 11.19534683227539 -1098.492553710938
  endloop
endfacet
facet normal 1 0 0
  outer loop
    vertex 2385.321533203125 11.19534683227539 -1098.492553710938
    vertex 2385.321533203125 1.5 -1180.845458984375
    vertex 2385.321533203125 12.52184200286865 -1099.042114257813
  endloop
endfacet
facet normal 1 0 0
  outer loop
    vertex 2385.321533203125 12.52184200286865 -1099.042114257813
    vertex 2385.321533203125 1.5 -1180.845458984375
    vertex 2385.321533203125 13.94534683227539 -1099.2294921875
  endloop
endfacet
facet normal 1 0 0
  outer loop
    vertex 2385.321533203125 27.5 -1083.845458984375
    vertex 2385.321533203125 19.44534683227539 -1093.7294921875
    vertex 2385.321533203125 27.5 -1180.845458984375
  endloop
endfacet
facet normal 1 0 0
  outer loop
    vertex 2385.321533203125 19.44534683227539 -1093.7294921875
    vertex 2385.321533203125 27.5 -1083.845458984375
    vertex 2385.321533203125 19.25793838500977 -1092.305908203125
  endloop
endfacet
facet normal 1 0 0
  outer loop
    vertex 2385.321533203125 19.25793838500977 -1092.305908203125
    vertex 2385.321533203125 27.5 -1083.845458984375
    vertex 2385.321533203125 18.70848655700684 -1090.9794921875
  endloop
endfacet
facet normal 1 0 0
  outer loop
    vertex 2385.321533203125 18.70848655700684 -1090.9794921875
    vertex 2385.321533203125 27.5 -1083.845458984375
    vertex 2385.321533203125 17.83443450927734 -1089.84033203125
  endloop
endfacet
facet normal 1 0 0
  outer loop
    vertex 2385.321533203125 17.83443450927734 -1089.84033203125
    vertex 2385.321533203125 27.5 -1083.845458984375
    vertex 2385.321533203125 16.69534683227539 -1088.96630859375
  endloop
endfacet
facet normal 1 0 0
  outer loop
    vertex 2385.321533203125 16.69534683227539 -1088.96630859375
    vertex 2385.321533203125 27.5 -1083.845458984375
    vertex 2385.321533203125 15.36885166168213 -1088.416870117188
  endloop
endfacet
facet normal 1 0 0
  outer loop
    vertex 2385.321533203125 15.36885166168213 -1088.416870117188
    vertex 2385.321533203125 27.5 -1083.845458984375
    vertex 2385.321533203125 13.94534683227539 -1088.2294921875
  endloop
endfacet
facet normal 1 0 0
  outer loop
    vertex 2385.321533203125 27.5 -1180.845458984375
    vertex 2385.321533203125 19.44534683227539 -1093.7294921875
    vertex 2385.321533203125 19.25793838500977 -1095.152954101563
  endloop
endfacet
facet normal 1 0 0
  outer loop
    vertex 2385.321533203125 27.5 -1180.845458984375
    vertex 2385.321533203125 19.25793838500977 -1095.152954101563
    vertex 2385.321533203125 18.70848655700684 -1096.4794921875
  endloop
endfacet
facet normal 1 0 0
  outer loop
    vertex 2385.321533203125 27.5 -1180.845458984375
    vertex 2385.321533203125 18.70848655700684 -1096.4794921875
    vertex 2385.321533203125 17.83443450927734 -1097.618530273438
  endloop
endfacet
facet normal 1 0 0
  outer loop
    vertex 2385.321533203125 27.5 -1180.845458984375
    vertex 2385.321533203125 17.83443450927734 -1097.618530273438
    vertex 2385.321533203125 16.69534683227539 -1098.492553710938
  endloop
endfacet
facet normal 1 0 0
  outer loop
    vertex 2385.321533203125 27.5 -1180.845458984375
    vertex 2385.321533203125 16.69534683227539 -1098.492553710938
    vertex 2385.321533203125 15.36885166168213 -1099.042114257813
  endloop
endfacet
facet normal 1 0 0
  outer loop
    vertex 2385.321533203125 27.5 -1180.845458984375
    vertex 2385.321533203125 15.36885166168213 -1099.042114257813
    vertex 2385.321533203125 13.94534683227539 -1099.2294921875
  endloop
endfacet
facet normal 1 0 0
  outer loop
    vertex 2385.321533203125 27.5 -1180.845458984375
    vertex 2385.321533203125 13.94534683227539 -1099.2294921875
    vertex 2385.321533203125 1.5 -1180.845458984375
  endloop
endfacet
facet normal -1 -0 0
  outer loop
    vertex 2363.321533203125 1.5 -1131.018798828125
    vertex 2363.321533203125 -1.1279865760785e-14 -1093.81884765625
    vertex 2363.321533203125 1.5 -1093.81884765625
  endloop
endfacet
facet normal -1 -0 0
  outer loop
    vertex 2363.321533203125 -1.1279865760785e-14 -1093.81884765625
    vertex 2363.321533203125 1.5 -1131.018798828125
    vertex 2363.321533203125 -1.1279865760785e-14 -1131.018798828125
  endloop
endfacet
facet normal 0 0 -1
  outer loop
    vertex 2301.321533203125 27.5 -1083.845458984375
    vertex 2385.321533203125 1.5 -1083.845458984375
    vertex 2301.321533203125 1.5 -1083.845458984375
  endloop
endfacet
facet normal 0 0 -1
  outer loop
    vertex 2385.321533203125 1.5 -1083.845458984375
    vertex 2301.321533203125 27.5 -1083.845458984375
    vertex 2385.321533203125 27.5 -1083.845458984375
  endloop
endfacet
facet normal 0 0 1
  outer loop
    vertex 2385.321533203125 27.5 -1180.845458984375
    vertex 2301.321533203125 1.5 -1180.845458984375
    vertex 2385.321533203125 1.5 -1180.845458984375
  endloop
endfacet
facet normal 0 0 1
  outer loop
    vertex 2301.321533203125 1.5 -1180.845458984375
    vertex 2385.321533203125 27.5 -1180.845458984375
    vertex 2301.321533203125 27.5 -1180.845458984375
  endloop
endfacet
facet normal -1 -0 0
  outer loop
    vertex 2378.9169921875 1.5 -1169.496948242188
    vertex 2378.9169921875 -1.409983220098125e-15 -1145.296875
    vertex 2378.9169921875 1.5 -1145.296875
  endloop
endfacet
facet normal -1 -0 0
  outer loop
    vertex 2378.9169921875 -1.409983220098125e-15 -1145.296875
    vertex 2378.9169921875 1.5 -1169.496948242188
    vertex 2378.9169921875 -1.409983220098125e-15 -1169.496948242188
  endloop
endfacet
facet normal 0 0 -1
  outer loop
    vertex 2307.717041015625 1.5 -1145.296875
    vertex 2378.9169921875 -1.409983220098125e-15 -1145.296875
    vertex 2307.717041015625 -1.409983220098125e-15 -1145.296875
  endloop
endfacet
facet normal 0 0 -1
  outer loop
    vertex 2378.9169921875 -1.409983220098125e-15 -1145.296875
    vertex 2307.717041015625 1.5 -1145.296875
    vertex 2378.9169921875 1.5 -1145.296875
  endloop
endfacet
facet normal 0 0 1
  outer loop
    vertex 2378.9169921875 1.5 -1169.496948242188
    vertex 2307.717041015625 -1.409983220098125e-15 -1169.496948242188
    vertex 2378.9169921875 -1.409983220098125e-15 -1169.496948242188
  endloop
endfacet
facet normal 0 0 1
  outer loop
    vertex 2307.717041015625 -1.409983220098125e-15 -1169.496948242188
    vertex 2378.9169921875 1.5 -1169.496948242188
    vertex 2307.717041015625 1.5 -1169.496948242188
  endloop
endfacet
facet normal 1 0 0
  outer loop
    vertex 2323.321533203125 -1.1279865760785e-14 -1131.018798828125
    vertex 2323.321533203125 1.5 -1093.81884765625
    vertex 2323.321533203125 -1.1279865760785e-14 -1093.81884765625
  endloop
endfacet
facet normal 1 0 0
  outer loop
    vertex 2323.321533203125 1.5 -1093.81884765625
    vertex 2323.321533203125 -1.1279865760785e-14 -1131.018798828125
    vertex 2323.321533203125 1.5 -1131.018798828125
  endloop
endfacet
facet normal 0 0 1
  outer loop
    vertex 2363.321533203125 1.5 -1131.018798828125
    vertex 2323.321533203125 -1.1279865760785e-14 -1131.018798828125
    vertex 2363.321533203125 -1.1279865760785e-14 -1131.018798828125
  endloop
endfacet
facet normal 0 0 1
  outer loop
    vertex 2323.321533203125 -1.1279865760785e-14 -1131.018798828125
    vertex 2363.321533203125 1.5 -1131.018798828125
    vertex 2323.321533203125 1.5 -1131.018798828125
  endloop
endfacet
facet normal 0 -0.7933533191680908 -0.6087614297866821
  outer loop
    vertex 2386.821533203125 10.05625915527344 -1097.618530273438
    vertex 2385.321533203125 9.182207107543945 -1096.4794921875
    vertex 2385.321533203125 10.05625915527344 -1097.618530273438
  endloop
endfacet
facet normal 0 -0.7933533191680908 -0.6087614297866821
  outer loop
    vertex 2385.321533203125 9.182207107543945 -1096.4794921875
    vertex 2386.821533203125 10.05625915527344 -1097.618530273438
    vertex 2386.821533203125 9.182207107543945 -1096.4794921875
  endloop
endfacet
facet normal 0 0.1305261850357056 -0.9914448857307434
  outer loop
    vertex 2385.321533203125 15.36885166168213 -1099.042114257813
    vertex 2386.821533203125 13.94534683227539 -1099.2294921875
    vertex 2385.321533203125 13.94534683227539 -1099.2294921875
  endloop
endfacet
facet normal 0 0.1305261850357056 -0.9914448857307434
  outer loop
    vertex 2386.821533203125 13.94534683227539 -1099.2294921875
    vertex 2385.321533203125 15.36885166168213 -1099.042114257813
    vertex 2386.821533203125 15.36885166168213 -1099.042114257813
  endloop
endfacet
facet normal 0 0.7933533191680908 -0.6087614297866821
  outer loop
    vertex 2386.821533203125 18.70848655700684 -1096.4794921875
    vertex 2385.321533203125 17.83443450927734 -1097.618530273438
    vertex 2385.321533203125 18.70848655700684 -1096.4794921875
  endloop
endfacet
facet normal 0 0.7933533191680908 -0.6087614297866821
  outer loop
    vertex 2385.321533203125 17.83443450927734 -1097.618530273438
    vertex 2386.821533203125 18.70848655700684 -1096.4794921875
    vertex 2386.821533203125 17.83443450927734 -1097.618530273438
  endloop
endfacet
facet normal 0 0.9914448857307434 -0.1305261850357056
  outer loop
    vertex 2386.821533203125 19.44534683227539 -1093.7294921875
    vertex 2385.321533203125 19.25793838500977 -1095.152954101563
    vertex 2385.321533203125 19.44534683227539 -1093.7294921875
  endloop
endfacet
facet normal 0 0.9914448857307434 -0.1305261850357056
  outer loop
    vertex 2385.321533203125 19.25793838500977 -1095.152954101563
    vertex 2386.821533203125 19.44534683227539 -1093.7294921875
    vertex 2386.821533203125 19.25793838500977 -1095.152954101563
  endloop
endfacet
facet normal 0 -0.1305261850357056 -0.9914448857307434
  outer loop
    vertex 2385.321533203125 13.94534683227539 -1099.2294921875
    vertex 2386.821533203125 12.52184200286865 -1099.042114257813
    vertex 2385.321533203125 12.52184200286865 -1099.042114257813
  endloop
endfacet
facet normal 0 -0.1305261850357056 -0.9914448857307434
  outer loop
    vertex 2386.821533203125 12.52184200286865 -1099.042114257813
    vertex 2385.321533203125 13.94534683227539 -1099.2294921875
    vertex 2386.821533203125 13.94534683227539 -1099.2294921875
  endloop
endfacet
facet normal -0 -0.9914448857307434 0.1305261850357056
  outer loop
    vertex 2386.821533203125 8.445346832275391 -1093.7294921875
    vertex 2385.321533203125 8.632754325866699 -1092.305908203125
    vertex 2385.321533203125 8.445346832275391 -1093.7294921875
  endloop
endfacet
facet normal -0 -0.9914448857307434 0.1305261850357056
  outer loop
    vertex 2385.321533203125 8.632754325866699 -1092.305908203125
    vertex 2386.821533203125 8.445346832275391 -1093.7294921875
    vertex 2386.821533203125 8.632754325866699 -1092.305908203125
  endloop
endfacet
facet normal 0 -0.9238795042037964 -0.3826834261417389
  outer loop
    vertex 2386.821533203125 9.182207107543945 -1096.4794921875
    vertex 2385.321533203125 8.632754325866699 -1095.152954101563
    vertex 2385.321533203125 9.182207107543945 -1096.4794921875
  endloop
endfacet
facet normal 0 -0.9238795042037964 -0.3826834261417389
  outer loop
    vertex 2385.321533203125 8.632754325866699 -1095.152954101563
    vertex 2386.821533203125 9.182207107543945 -1096.4794921875
    vertex 2386.821533203125 8.632754325866699 -1095.152954101563
  endloop
endfacet
facet normal 0 -0.6087614297866821 -0.7933533191680908
  outer loop
    vertex 2385.321533203125 11.19534683227539 -1098.492553710938
    vertex 2386.821533203125 10.05625915527344 -1097.618530273438
    vertex 2385.321533203125 10.05625915527344 -1097.618530273438
  endloop
endfacet
facet normal 0 -0.6087614297866821 -0.7933533191680908
  outer loop
    vertex 2386.821533203125 10.05625915527344 -1097.618530273438
    vertex 2385.321533203125 11.19534683227539 -1098.492553710938
    vertex 2386.821533203125 11.19534683227539 -1098.492553710938
  endloop
endfacet
facet normal 0 0.3826834261417389 -0.9238795042037964
  outer loop
    vertex 2385.321533203125 16.69534683227539 -1098.492553710938
    vertex 2386.821533203125 15.36885166168213 -1099.042114257813
    vertex 2385.321533203125 15.36885166168213 -1099.042114257813
  endloop
endfacet
facet normal 0 0.3826834261417389 -0.9238795042037964
  outer loop
    vertex 2386.821533203125 15.36885166168213 -1099.042114257813
    vertex 2385.321533203125 16.69534683227539 -1098.492553710938
    vertex 2386.821533203125 16.69534683227539 -1098.492553710938
  endloop
endfacet
facet normal 0 0.9238795042037964 -0.3826834261417389
  outer loop
    vertex 2386.821533203125 19.25793838500977 -1095.152954101563
    vertex 2385.321533203125 18.70848655700684 -1096.4794921875
    vertex 2385.321533203125 19.25793838500977 -1095.152954101563
  endloop
endfacet
facet normal 0 0.9238795042037964 -0.3826834261417389
  outer loop
    vertex 2385.321533203125 18.70848655700684 -1096.4794921875
    vertex 2386.821533203125 19.25793838500977 -1095.152954101563
    vertex 2386.821533203125 18.70848655700684 -1096.4794921875
  endloop
endfacet
facet normal -0 -0.7933533191680908 0.6087614297866821
  outer loop
    vertex 2386.821533203125 9.182207107543945 -1090.9794921875
    vertex 2385.321533203125 10.05625915527344 -1089.84033203125
    vertex 2385.321533203125 9.182207107543945 -1090.9794921875
  endloop
endfacet
facet normal -0 -0.7933533191680908 0.6087614297866821
  outer loop
    vertex 2385.321533203125 10.05625915527344 -1089.84033203125
    vertex 2386.821533203125 9.182207107543945 -1090.9794921875
    vertex 2386.821533203125 10.05625915527344 -1089.84033203125
  endloop
endfacet
facet normal -0 -0.9238795042037964 0.3826834261417389
  outer loop
    vertex 2386.821533203125 8.632754325866699 -1092.305908203125
    vertex 2385.321533203125 9.182207107543945 -1090.9794921875
    vertex 2385.321533203125 8.632754325866699 -1092.305908203125
  endloop
endfacet
facet normal -0 -0.9238795042037964 0.3826834261417389
  outer loop
    vertex 2385.321533203125 9.182207107543945 -1090.9794921875
    vertex 2386.821533203125 8.632754325866699 -1092.305908203125
    vertex 2386.821533203125 9.182207107543945 -1090.9794921875
  endloop
endfacet
facet normal 0 0.6087614297866821 -0.7933533191680908
  outer loop
    vertex 2385.321533203125 17.83443450927734 -1097.618530273438
    vertex 2386.821533203125 16.69534683227539 -1098.492553710938
    vertex 2385.321533203125 16.69534683227539 -1098.492553710938
  endloop
endfacet
facet normal 0 0.6087614297866821 -0.7933533191680908
  outer loop
    vertex 2386.821533203125 16.69534683227539 -1098.492553710938
    vertex 2385.321533203125 17.83443450927734 -1097.618530273438
    vertex 2386.821533203125 17.83443450927734 -1097.618530273438
  endloop
endfacet
facet normal 0 0.9914448857307434 0.1305261850357056
  outer loop
    vertex 2386.821533203125 19.25793838500977 -1092.305908203125
    vertex 2385.321533203125 19.44534683227539 -1093.7294921875
    vertex 2385.321533203125 19.25793838500977 -1092.305908203125
  endloop
endfacet
facet normal 0 0.9914448857307434 0.1305261850357056
  outer loop
    vertex 2385.321533203125 19.44534683227539 -1093.7294921875
    vertex 2386.821533203125 19.25793838500977 -1092.305908203125
    vertex 2386.821533203125 19.44534683227539 -1093.7294921875
  endloop
endfacet
facet normal 0 0.9238795042037964 0.3826834261417389
  outer loop
    vertex 2386.821533203125 18.70848655700684 -1090.9794921875
    vertex 2385.321533203125 19.25793838500977 -1092.305908203125
    vertex 2385.321533203125 18.70848655700684 -1090.9794921875
  endloop
endfacet
facet normal 0 0.9238795042037964 0.3826834261417389
  outer loop
    vertex 2385.321533203125 19.25793838500977 -1092.305908203125
    vertex 2386.821533203125 18.70848655700684 -1090.9794921875
    vertex 2386.821533203125 19.25793838500977 -1092.305908203125
  endloop
endfacet
facet normal 0 -0.9914448857307434 -0.1305261850357056
  outer loop
    vertex 2386.821533203125 8.632754325866699 -1095.152954101563
    vertex 2385.321533203125 8.445346832275391 -1093.7294921875
    vertex 2385.321533203125 8.632754325866699 -1095.152954101563
  endloop
endfacet
facet normal 0 -0.9914448857307434 -0.1305261850357056
  outer loop
    vertex 2385.321533203125 8.445346832275391 -1093.7294921875
    vertex 2386.821533203125 8.632754325866699 -1095.152954101563
    vertex 2386.821533203125 8.445346832275391 -1093.7294921875
  endloop
endfacet
facet normal 0 -0.3826834261417389 -0.9238795042037964
  outer loop
    vertex 2385.321533203125 12.52184200286865 -1099.042114257813
    vertex 2386.821533203125 11.19534683227539 -1098.492553710938
    vertex 2385.321533203125 11.19534683227539 -1098.492553710938
  endloop
endfacet
facet normal 0 -0.3826834261417389 -0.9238795042037964
  outer loop
    vertex 2386.821533203125 11.19534683227539 -1098.492553710938
    vertex 2385.321533203125 12.52184200286865 -1099.042114257813
    vertex 2386.821533203125 12.52184200286865 -1099.042114257813
  endloop
endfacet
facet normal 0 0.6087614297866821 0.7933533191680908
  outer loop
    vertex 2386.821533203125 17.83443450927734 -1089.84033203125
    vertex 2385.321533203125 16.69534683227539 -1088.96630859375
    vertex 2386.821533203125 16.69534683227539 -1088.96630859375
  endloop
endfacet
facet normal 0 0.6087614297866821 0.7933533191680908
  outer loop
    vertex 2385.321533203125 16.69534683227539 -1088.96630859375
    vertex 2386.821533203125 17.83443450927734 -1089.84033203125
    vertex 2385.321533203125 17.83443450927734 -1089.84033203125
  endloop
endfacet
facet normal -0 -0.1305261850357056 0.9914448857307434
  outer loop
    vertex 2386.821533203125 13.94534683227539 -1088.2294921875
    vertex 2385.321533203125 12.52184200286865 -1088.416870117188
    vertex 2386.821533203125 12.52184200286865 -1088.416870117188
  endloop
endfacet
facet normal -0 -0.1305261850357056 0.9914448857307434
  outer loop
    vertex 2385.321533203125 12.52184200286865 -1088.416870117188
    vertex 2386.821533203125 13.94534683227539 -1088.2294921875
    vertex 2385.321533203125 13.94534683227539 -1088.2294921875
  endloop
endfacet
facet normal 0 0.7933533191680908 0.6087614297866821
  outer loop
    vertex 2386.821533203125 17.83443450927734 -1089.84033203125
    vertex 2385.321533203125 18.70848655700684 -1090.9794921875
    vertex 2385.321533203125 17.83443450927734 -1089.84033203125
  endloop
endfacet
facet normal 0 0.7933533191680908 0.6087614297866821
  outer loop
    vertex 2385.321533203125 18.70848655700684 -1090.9794921875
    vertex 2386.821533203125 17.83443450927734 -1089.84033203125
    vertex 2386.821533203125 18.70848655700684 -1090.9794921875
  endloop
endfacet
facet normal 0 0.3826834261417389 0.9238795042037964
  outer loop
    vertex 2386.821533203125 16.69534683227539 -1088.96630859375
    vertex 2385.321533203125 15.36885166168213 -1088.416870117188
    vertex 2386.821533203125 15.36885166168213 -1088.416870117188
  endloop
endfacet
facet normal 0 0.3826834261417389 0.9238795042037964
  outer loop
    vertex 2385.321533203125 15.36885166168213 -1088.416870117188
    vertex 2386.821533203125 16.69534683227539 -1088.96630859375
    vertex 2385.321533203125 16.69534683227539 -1088.96630859375
  endloop
endfacet
facet normal -0 -0.6087614297866821 0.7933533191680908
  outer loop
    vertex 2386.821533203125 11.19534683227539 -1088.96630859375
    vertex 2385.321533203125 10.05625915527344 -1089.84033203125
    vertex 2386.821533203125 10.05625915527344 -1089.84033203125
  endloop
endfacet
facet normal -0 -0.6087614297866821 0.7933533191680908
  outer loop
    vertex 2385.321533203125 10.05625915527344 -1089.84033203125
    vertex 2386.821533203125 11.19534683227539 -1088.96630859375
    vertex 2385.321533203125 11.19534683227539 -1088.96630859375
  endloop
endfacet
facet normal 0 0.1305261850357056 0.9914448857307434
  outer loop
    vertex 2386.821533203125 15.36885166168213 -1088.416870117188
    vertex 2385.321533203125 13.94534683227539 -1088.2294921875
    vertex 2386.821533203125 13.94534683227539 -1088.2294921875
  endloop
endfacet
facet normal 0 0.1305261850357056 0.9914448857307434
  outer loop
    vertex 2385.321533203125 13.94534683227539 -1088.2294921875
    vertex 2386.821533203125 15.36885166168213 -1088.416870117188
    vertex 2385.321533203125 15.36885166168213 -1088.416870117188
  endloop
endfacet
facet normal -0 -0.3826834261417389 0.9238795042037964
  outer loop
    vertex 2386.821533203125 12.52184200286865 -1088.416870117188
    vertex 2385.321533203125 11.19534683227539 -1088.96630859375
    vertex 2386.821533203125 11.19534683227539 -1088.96630859375
  endloop
endfacet
facet normal -0 -0.3826834261417389 0.9238795042037964
  outer loop
    vertex 2385.321533203125 11.19534683227539 -1088.96630859375
    vertex 2386.821533203125 12.52184200286865 -1088.416870117188
    vertex 2385.321533203125 12.52184200286865 -1088.416870117188
  endloop
endfacet
endsolid 9D33
