solid 58E5
facet normal 0 -1 0
  outer loop
    vertex 2517.3095703125 27.5 -1182.345458984375
    vertex 2430.3095703125 27.5 -1082.345458984375
    vertex 2430.3095703125 27.5 -1182.345458984375
  endloop
endfacet
facet normal 0 -1 0
  outer loop
    vertex 2430.3095703125 27.5 -1082.345458984375
    vertex 2517.3095703125 27.5 -1182.345458984375
    vertex 2517.3095703125 27.5 -1082.345458984375
  endloop
endfacet
facet normal -1 -0 0
  outer loop
    vertex 2432.009521484375 31 -1180.645385742188
    vertex 2432.009521484375 29 -1084.04541015625
    vertex 2432.009521484375 31 -1084.04541015625
  endloop
endfacet
facet normal -1 -0 0
  outer loop
    vertex 2432.009521484375 29 -1084.04541015625
    vertex 2432.009521484375 31 -1180.645385742188
    vertex 2432.009521484375 29 -1180.645385742188
  endloop
endfacet
facet normal 1 0 0
  outer loop
    vertex 2515.609375 29 -1180.645385742188
    vertex 2515.609375 31 -1084.04541015625
    vertex 2515.609375 29 -1084.04541015625
  endloop
endfacet
facet normal 1 0 0
  outer loop
    vertex 2515.609375 31 -1084.04541015625
    vertex 2515.609375 29 -1180.645385742188
    vertex 2515.609375 31 -1180.645385742188
  endloop
endfacet
facet normal 0 0 -1
  outer loop
    vertex 2432.009521484375 31 -1180.645385742188
    vertex 2515.609375 29 -1180.645385742188
    vertex 2432.009521484375 29 -1180.645385742188
  endloop
endfacet
facet normal 0 0 -1
  outer loop
    vertex 2515.609375 29 -1180.645385742188
    vertex 2432.009521484375 31 -1180.645385742188
    vertex 2515.609375 31 -1180.645385742188
  endloop
endfacet
facet normal 0 0 1
  outer loop
    vertex 2515.609375 31 -1084.04541015625
    vertex 2432.009521484375 29 -1084.04541015625
    vertex 2515.609375 29 -1084.04541015625
  endloop
endfacet
facet normal 0 0 1
  outer loop
    vertex 2432.009521484375 29 -1084.04541015625
    vertex 2515.609375 31 -1084.04541015625
    vertex 2432.009521484375 31 -1084.04541015625
  endloop
endfacet
facet normal 0 1 0
  outer loop
    vertex 2515.609375 31 -1084.04541015625
    vertex 2432.009521484375 31 -1180.645385742188
    vertex 2432.009521484375 31 -1084.04541015625
  endloop
endfacet
facet normal 0 1 0
  outer loop
    vertex 2432.009521484375 31 -1180.645385742188
    vertex 2515.609375 31 -1084.04541015625
    vertex 2515.609375 31 -1180.645385742188
  endloop
endfacet
facet normal 0 0 -1
  outer loop
    vertex 2430.3095703125 29 -1182.345458984375
    vertex 2517.3095703125 27.5 -1182.345458984375
    vertex 2430.3095703125 27.5 -1182.345458984375
  endloop
endfacet
facet normal 0 0 -1
  outer loop
    vertex 2517.3095703125 27.5 -1182.345458984375
    vertex 2430.3095703125 29 -1182.345458984375
    vertex 2517.3095703125 29 -1182.345458984375
  endloop
endfacet
facet normal -1 -0 0
  outer loop
    vertex 2430.3095703125 29 -1182.345458984375
    vertex 2430.3095703125 27.5 -1082.345458984375
    vertex 2430.3095703125 29 -1082.345458984375
  endloop
endfacet
facet normal -1 -0 0
  outer loop
    vertex 2430.3095703125 27.5 -1082.345458984375
    vertex 2430.3095703125 29 -1182.345458984375
    vertex 2430.3095703125 27.5 -1182.345458984375
  endloop
endfacet
facet normal 0 0 1
  outer loop
    vertex 2517.3095703125 29 -1082.345458984375
    vertex 2430.3095703125 27.5 -1082.345458984375
    vertex 2517.3095703125 27.5 -1082.345458984375
  endloop
endfacet
facet normal 0 0 1
  outer loop
    vertex 2430.3095703125 27.5 -1082.345458984375
    vertex 2517.3095703125 29 -1082.345458984375
    vertex 2430.3095703125 29 -1082.345458984375
  endloop
endfacet
facet normal 0 1 0
  outer loop
    vertex 2430.3095703125 29 -1082.345458984375
    vertex 2432.009521484375 29 -1084.04541015625
    vertex 2430.3095703125 29 -1182.345458984375
  endloop
endfacet
facet normal 0 1 0
  outer loop
    vertex 2432.009521484375 29 -1084.04541015625
    vertex 2430.3095703125 29 -1082.345458984375
    vertex 2517.3095703125 29 -1082.345458984375
  endloop
endfacet
facet normal 0 1 0
  outer loop
    vertex 2432.009521484375 29 -1084.04541015625
    vertex 2517.3095703125 29 -1082.345458984375
    vertex 2515.609375 29 -1084.04541015625
  endloop
endfacet
facet normal 0 1 0
  outer loop
    vertex 2515.609375 29 -1084.04541015625
    vertex 2517.3095703125 29 -1082.345458984375
    vertex 2515.609375 29 -1180.645385742188
  endloop
endfacet
facet normal 0 1 0
  outer loop
    vertex 2430.3095703125 29 -1182.345458984375
    vertex 2432.009521484375 29 -1180.645385742188
    vertex 2517.3095703125 29 -1182.345458984375
  endloop
endfacet
facet normal 0 1 0
  outer loop
    vertex 2432.009521484375 29 -1180.645385742188
    vertex 2430.3095703125 29 -1182.345458984375
    vertex 2432.009521484375 29 -1084.04541015625
  endloop
endfacet
facet normal 0 1 0
  outer loop
    vertex 2517.3095703125 29 -1182.345458984375
    vertex 2432.009521484375 29 -1180.645385742188
    vertex 2515.609375 29 -1180.645385742188
  endloop
endfacet
facet normal 0 1 0
  outer loop
    vertex 2517.3095703125 29 -1182.345458984375
    vertex 2515.609375 29 -1180.645385742188
    vertex 2517.3095703125 29 -1082.345458984375
  endloop
endfacet
facet normal 1 0 0
  outer loop
    vertex 2517.3095703125 27.5 -1182.345458984375
    vertex 2517.3095703125 29 -1082.345458984375
    vertex 2517.3095703125 27.5 -1082.345458984375
  endloop
endfacet
facet normal 1 0 0
  outer loop
    vertex 2517.3095703125 29 -1082.345458984375
    vertex 2517.3095703125 27.5 -1182.345458984375
    vertex 2517.3095703125 29 -1182.345458984375
  endloop
endfacet
endsolid 58E5
